<svg width="36" height="41" viewBox="0 0 36 41" fill="none" xmlns="http://www.w3.org/2000/svg">
<g clip-path="url(#clip0_146_1198)">
<path d="M18 41C8.05887 41 0 32.769 0 22.6155C0 12.462 8.05887 4.23096 18 4.23096C27.9411 4.23096 36 12.462 36 22.6155C36 32.769 27.9411 41 18 41Z" fill="#E4E4E4"/>
<path d="M24.2034 22.9093C22.837 22.9093 21.7293 21.7779 21.7293 20.3824C21.7293 18.9868 22.837 17.8555 24.2034 17.8555C25.5698 17.8555 26.6774 18.9868 26.6774 20.3824C26.6774 21.7779 25.5698 22.9093 24.2034 22.9093Z" fill="#979797"/>
<path d="M11.7966 22.9093C10.4302 22.9093 9.32255 21.7779 9.32255 20.3824C9.32255 18.9868 10.4302 17.8555 11.7966 17.8555C13.163 17.8555 14.2706 18.9868 14.2706 20.3824C14.2706 21.7779 13.163 22.9093 11.7966 22.9093Z" fill="#979797"/>
<path d="M18 34.9725C21.9518 34.9725 25.1663 31.6893 25.1663 27.6531C25.1663 27.0705 24.7039 26.5982 24.1335 26.5982H11.8681C11.2977 26.5982 10.8353 27.0705 10.8353 27.6531C10.8353 31.6893 14.0498 34.9725 18 34.9725ZM22.9942 28.708C22.5159 31.0759 20.4581 32.8627 18 32.8627C15.5418 32.8627 13.4841 31.0775 13.0058 28.708H22.9958H22.9942Z" fill="#979797"/>
<path d="M18 11.2939C25.6176 11.2939 33.8183 9.52658 33.8183 5.64778C33.8183 1.76899 25.6192 0 18 0C10.3808 0 2.18167 1.76737 2.18167 5.64616C2.18167 9.52496 10.3808 11.2923 18 11.2923V11.2939ZM18 2.43439C21.7945 2.43439 25.3475 2.87745 28.0042 3.6808C30.8533 4.5442 31.4349 5.44979 31.4349 5.64616C31.4349 5.84254 30.8533 6.74813 28.0042 7.61153C25.349 8.4165 21.7961 8.85793 18 8.85793C14.2039 8.85793 10.6525 8.41488 7.99735 7.61153C5.1483 6.74813 4.56673 5.84254 4.56673 5.64616C4.56673 5.44979 5.1483 4.5442 7.99735 3.6808C10.6525 2.87583 14.2055 2.43439 18 2.43439Z" fill="#979797"/>
</g>
<defs>
<clipPath id="clip0_146_1198">
<rect width="36" height="41" fill="white" transform="matrix(-1 0 0 1 36 0)"/>
</clipPath>
</defs>
</svg>
