<svg width="45" height="45" viewBox="0 0 45 45" fill="none" xmlns="http://www.w3.org/2000/svg">
<g clip-path="url(#clip0_146_1148)">
<path d="M22.4968 44.9936C34.9214 44.9936 44.9936 34.9214 44.9936 22.4968C44.9936 10.0722 34.9214 0 22.4968 0C10.0722 0 0 10.0722 0 22.4968C0 34.9214 10.0722 44.9936 22.4968 44.9936Z" fill="#E4E4E4"/>
<path d="M12.2733 27.6214C12.2733 25.6747 12.7761 24.2308 13.8204 24.2308C14.7615 24.2308 15.3288 25.404 16.0378 26.8157C18.0554 30.78 20.0344 32.3915 22.8191 32.3915C25.3717 32.3915 27.0864 30.8831 27.0864 28.4272C27.0864 26.6481 25.7069 25.6038 21.3429 24.2308C15.5028 22.3163 13.3498 20.2342 13.3498 16.5729C13.3498 12.9115 16.0056 9.75293 20.9368 9.75293C23.8891 9.75293 25.5006 10.9261 26.2097 11.7319C26.9832 10.6554 27.8212 9.75293 28.93 9.75293C30.6059 9.75293 31.8178 12.5763 31.8178 15.664C31.8178 17.6107 31.2441 18.7516 30.2385 18.7516C29.3296 18.7516 28.6592 17.8814 27.7503 16.3666C26.4418 14.2201 25.0945 12.0993 22.2776 12.0993C20.0279 12.0993 18.6872 13.4079 18.6872 15.3223C18.6872 17.2368 20.1311 18.3778 24.6304 19.8217C30.5737 21.7684 32.7202 23.786 32.7202 27.3442C32.7202 31.3408 29.3296 35.2342 24.8303 35.2342C22.8835 35.2342 21.4396 34.2609 20.1633 34.2609C18.9901 34.2609 18.2166 35.2342 17.0434 35.2342C14.0911 35.2342 12.2733 30.8702 12.2733 27.6085V27.6214Z" fill="#979797"/>
</g>
<defs>
<clipPath id="clip0_146_1148">
<rect width="45" height="45" fill="white"/>
</clipPath>
</defs>
</svg>
