<svg width="45" height="45" viewBox="0 0 45 45" fill="none" xmlns="http://www.w3.org/2000/svg">
<g clip-path="url(#clip0_146_1157)">
<path d="M22.4968 44.9936C34.9214 44.9936 44.9936 34.9214 44.9936 22.4968C44.9936 10.0722 34.9214 0 22.4968 0C10.0722 0 0 10.0722 0 22.4968C0 34.9214 10.0722 44.9936 22.4968 44.9936Z" fill="#E4E4E4"/>
<path d="M34.841 32.6945C34.841 34.3382 33.3326 35.0473 29.7357 35.0473C26.1388 35.0473 24.4951 34.4414 24.4951 33.0684C24.4951 32.1981 24.7271 31.8952 25.6038 31.4246C26.2742 31.0572 26.6416 30.6189 26.6416 30.1161C26.6416 29.7809 26.5385 29.4134 26.474 29.0718L26.0679 27.8277C25.8358 27.0219 25.3653 26.6545 24.5595 26.6545H19.2866C18.4809 26.6545 18.1457 26.9253 17.9072 27.6279L17.3335 29.4779C17.269 29.6777 17.1981 29.9807 17.1981 30.2837C17.1981 30.7865 17.5011 31.1216 18.1392 31.4246C18.8805 31.8307 19.2802 32.2304 19.2802 32.933C19.2802 34.3769 18.0039 35.0473 14.6455 35.0473C11.5256 35.0473 10.1461 34.4091 10.1461 32.8621C10.1461 32.1917 10.4169 31.7856 11.4224 31.1474C12.3958 30.4061 13.0017 29.6391 13.3369 28.5948L18.1392 14.1878L17.6042 14.0847C16.1281 13.814 15.3868 13.1113 15.3868 11.7319C15.3868 10.4556 16.1603 9.95276 18.2101 9.95276H23.4121C25.1912 9.95276 25.9325 10.3202 26.3644 11.835L31.8049 28.4594C32.211 29.768 32.6107 30.3094 33.4487 30.8767C34.5574 31.5471 34.8281 31.9532 34.8281 32.688L34.841 32.6945ZM19.061 23.728H24.8045L21.8522 14.5617L19.0675 23.728H19.061Z" fill="#979797"/>
</g>
<defs>
<clipPath id="clip0_146_1157">
<rect width="45" height="45" fill="white"/>
</clipPath>
</defs>
</svg>
