<svg width="45" height="45" viewBox="0 0 45 45" fill="none" xmlns="http://www.w3.org/2000/svg">
<g clip-path="url(#clip0_146_1209)">
<path d="M22.4968 44.9936C34.9214 44.9936 44.9936 34.9214 44.9936 22.4968C44.9936 10.0722 34.9214 0 22.4968 0C10.0722 0 0 10.0722 0 22.4968C0 34.9214 10.0722 44.9936 22.4968 44.9936Z" fill="#E4E4E4"/>
<path d="M12.5956 22.2132C12.5956 15.0258 16.4568 9.75293 21.7297 9.75293C23.8762 9.75293 25.5587 10.6231 26.6996 12.3378C27.7761 10.4878 28.5819 9.75293 29.4198 9.75293C31.0314 9.75293 32.3077 12.6085 32.3077 16.0636C32.3077 18.5131 31.5664 19.8604 30.4577 19.8604C29.5488 19.8604 28.9106 19.1191 27.5054 16.6373C25.8938 13.814 24.5531 12.7761 22.7353 12.7761C20.1826 12.7761 18.1328 15.664 18.1328 20.3309C18.1328 27.0155 20.8853 31.1797 24.4822 31.1797C27.0348 31.1797 29.0137 29.6326 30.3932 26.7834C30.6962 26.1131 30.896 25.9132 31.199 25.9132C31.8371 25.9132 32.4108 26.8543 32.4108 27.8922C32.4108 31.2828 28.5174 35.2471 23.0769 35.2471C16.9983 35.2471 12.6021 30.1418 12.6021 22.2196L12.5956 22.2132Z" fill="#979797"/>
</g>
<defs>
<clipPath id="clip0_146_1209">
<rect width="45" height="45" fill="white"/>
</clipPath>
</defs>
</svg>
