<svg width="45" height="45" viewBox="0 0 45 45" fill="none" xmlns="http://www.w3.org/2000/svg">
<g clip-path="url(#clip0_146_1206)">
<path d="M22.4968 44.9936C34.9214 44.9936 44.9936 34.9214 44.9936 22.4968C44.9936 10.0722 34.9214 0 22.4968 0C10.0722 0 0 10.0722 0 22.4968C0 34.9214 10.0722 44.9936 22.4968 44.9936Z" fill="#E4E4E4"/>
<path d="M32.3206 27.5183C32.3206 31.7856 29.3683 34.841 22.11 34.841H15.5608C13.6141 34.841 12.673 34.0997 12.673 32.991C12.673 32.2175 13.0791 31.6115 13.7817 30.9411C14.2845 30.4384 14.7551 29.6648 14.7551 27.8212V17.1466C14.7551 15.3352 14.3876 14.6261 13.8139 14.0911C13.1113 13.453 12.673 12.8793 12.673 12.1444C12.673 10.9712 13.8139 10.1655 15.896 10.1655H23.6893C28.1242 10.1655 31.4117 12.1444 31.4117 16.0443C31.4117 18.7001 29.6003 20.6468 26.8479 21.5492C30.1031 22.1229 32.3206 24.1663 32.3206 27.5247V27.5183ZM19.9957 19.4929C19.9957 20.3631 20.4018 20.737 21.5041 20.737C24.0245 20.737 25.8358 19.3576 25.8358 16.8049C25.8358 14.4199 24.5918 13.2789 22.5419 13.2789C20.4921 13.2789 19.9893 13.8139 19.9893 15.1612V19.4929H19.9957ZM26.7447 27.4861C26.7447 24.7013 25.1655 23.3864 22.2454 23.3864C20.6016 23.3864 19.9957 23.8891 19.9957 24.9656V29.5295C19.9957 30.838 20.7692 31.3795 22.2776 31.3795C24.798 31.3795 26.7447 30.3417 26.7447 27.4861Z" fill="#979797"/>
</g>
<defs>
<clipPath id="clip0_146_1206">
<rect width="45" height="45" fill="white"/>
</clipPath>
</defs>
</svg>
