<svg width="41" height="41" viewBox="0 0 41 41" fill="none" xmlns="http://www.w3.org/2000/svg">
<g clip-path="url(#clip0_146_1306)">
<path d="M38.5134 10.7078C39.1033 9.67995 39.5847 7.94809 40.0064 5.17929C40.0715 4.74859 40.3574 2.73442 39.563 1.07857C39.1468 0.213542 38.7323 0.0597193 38.5387 0.0199064C38.1768 -0.0560999 37.8329 0.0977224 37.4113 0.293167C36.7453 0.602622 36.3164 0.982653 36.2839 1.0098C35.037 2.11189 32.9269 2.64755 31.7796 3.38047C28.5439 1.24506 24.6675 0 20.4999 0C16.1005 0 12.0233 1.38621 8.6845 3.74603C7.59146 3.10178 5.49223 2.54802 4.29785 1.49298C4.26527 1.46403 3.83638 1.084 3.17042 0.77635C2.74877 0.580906 2.40493 0.427083 2.04299 0.50309C1.84936 0.544712 1.43313 0.698534 1.01872 1.56175C0.222459 3.21579 0.508388 5.23177 0.573536 5.66066C1.01691 8.56519 1.54171 10.3314 2.18234 11.2888C0.758123 14.1155 -0.0327048 17.3168 -0.000130672 20.7045C0.110259 31.9751 9.44456 41.1158 20.7152 40.9982C31.9859 40.8806 40.9981 31.7489 40.9981 20.5C40.9981 16.953 40.0968 13.6178 38.5134 10.7078Z" fill="#E4E4E4"/>
<path d="M27.2404 26.1145L14.4309 28.0289C13.6391 28.1472 13.0931 28.885 13.2115 29.6768L13.2117 29.6786C13.3301 30.4704 14.0679 31.0163 14.8596 30.898L27.6692 28.9835C28.461 28.8652 29.0069 28.1274 28.8886 27.3357L28.8883 27.3339C28.77 26.5421 28.0322 25.9962 27.2404 26.1145Z" fill="#979797"/>
<path d="M13.435 20.2286C14.9912 20.2286 16.2527 18.9671 16.2527 17.4109C16.2527 15.8548 14.9912 14.5933 13.435 14.5933C11.8789 14.5933 10.6174 15.8548 10.6174 17.4109C10.6174 18.9671 11.8789 20.2286 13.435 20.2286Z" fill="#979797"/>
<path d="M14.7423 14.8361L11.259 12.4858C10.583 12.0296 9.66514 12.2078 9.20897 12.8839C8.7528 13.5599 8.93104 14.4778 9.60709 14.9339L13.0904 17.2843C13.7664 17.7405 14.6842 17.5622 15.1404 16.8862C15.5966 16.2102 15.4183 15.2923 14.7423 14.8361Z" fill="#979797"/>
<path d="M27.565 20.2286C29.1211 20.2286 30.3826 18.9671 30.3826 17.4109C30.3826 15.8548 29.1211 14.5933 27.565 14.5933C26.0088 14.5933 24.7473 15.8548 24.7473 17.4109C24.7473 18.9671 26.0088 20.2286 27.565 20.2286Z" fill="#979797"/>
<path d="M27.9072 17.2841L31.3905 14.9338C32.0665 14.4776 32.2448 13.5597 31.7886 12.8837C31.3324 12.2076 30.4146 12.0294 29.7385 12.4856L26.2553 14.8359C25.5792 15.2921 25.401 16.21 25.8571 16.886C26.3133 17.5621 27.2312 17.7403 27.9072 17.2841Z" fill="#979797"/>
</g>
<defs>
<clipPath id="clip0_146_1306">
<rect width="41" height="41" fill="white"/>
</clipPath>
</defs>
</svg>
