<svg width="41" height="41" viewBox="0 0 41 41" fill="none" xmlns="http://www.w3.org/2000/svg">
<g clip-path="url(#clip0_146_1180)">
<path d="M20.5 41C31.8218 41 41 31.8218 41 20.5C41 9.17816 31.8218 0 20.5 0C9.17816 0 0 9.17816 0 20.5C0 31.8218 9.17816 41 20.5 41Z" fill="#E4E4E4"/>
<path d="M13.435 20.8275C14.9912 20.8275 16.2527 19.566 16.2527 18.0099C16.2527 16.4537 14.9912 15.1922 13.435 15.1922C11.8789 15.1922 10.6174 16.4537 10.6174 18.0099C10.6174 19.566 11.8789 20.8275 13.435 20.8275Z" fill="#979797"/>
<path d="M14.7413 15.4325L11.258 13.0821C10.5819 12.626 9.6641 12.8042 9.20793 13.4803C8.75176 14.1563 8.93001 15.0741 9.60605 15.5303L13.0893 17.8807C13.7654 18.3369 14.6832 18.1586 15.1394 17.4826C15.5955 16.8065 15.4173 15.8887 14.7413 15.4325Z" fill="#979797"/>
<path d="M27.565 20.8276C29.1211 20.8276 30.3826 19.5661 30.3826 18.0099C30.3826 16.4538 29.1211 15.1923 27.565 15.1923C26.0088 15.1923 24.7473 16.4538 24.7473 18.0099C24.7473 19.5661 26.0088 20.8276 27.565 20.8276Z" fill="#979797"/>
<path d="M27.908 17.8839L31.3912 15.5335C32.0673 15.0773 32.2455 14.1595 31.7894 13.4834C31.3332 12.8074 30.4153 12.6291 29.7393 13.0853L26.256 15.4357C25.58 15.8919 25.4017 16.8097 25.8579 17.4857C26.3141 18.1618 27.2319 18.34 27.908 17.8839Z" fill="#979797"/>
<path d="M28.8245 25.5743C28.8245 29.058 24.9464 31.8829 20.1634 31.8829C15.3804 31.8829 11.5023 29.058 11.5023 25.5743" stroke="#979797" stroke-width="3" stroke-linecap="round" stroke-linejoin="round"/>
</g>
<defs>
<clipPath id="clip0_146_1180">
<rect width="41" height="41" fill="white"/>
</clipPath>
</defs>
</svg>
