<svg width="41" height="41" viewBox="0 0 41 41" fill="none" xmlns="http://www.w3.org/2000/svg">
<g clip-path="url(#clip0_146_1191)">
<path d="M20.5 41C31.8218 41 41 31.8218 41 20.5C41 9.17816 31.8218 0 20.5 0C9.17816 0 0 9.17816 0 20.5C0 31.8218 9.17816 41 20.5 41Z" fill="#E4E4E4"/>
<path d="M13.435 20.8275C14.9912 20.8275 16.2527 19.566 16.2527 18.0099C16.2527 16.4537 14.9912 15.1922 13.435 15.1922C11.8789 15.1922 10.6174 16.4537 10.6174 18.0099C10.6174 19.566 11.8789 20.8275 13.435 20.8275Z" fill="#979797"/>
<path d="M27.565 20.8275C29.1211 20.8275 30.3826 19.566 30.3826 18.0099C30.3826 16.4537 29.1211 15.1922 27.565 15.1922C26.0088 15.1922 24.7473 16.4537 24.7473 18.0099C24.7473 19.566 26.0088 20.8275 27.565 20.8275Z" fill="#979797"/>
<path d="M28.8245 25.5743C28.8245 29.058 24.9464 31.8829 20.1634 31.8829C15.3804 31.8829 11.5023 29.058 11.5023 25.5743" stroke="#979797" stroke-width="3" stroke-linecap="round" stroke-linejoin="round"/>
</g>
<defs>
<clipPath id="clip0_146_1191">
<rect width="41" height="41" fill="white"/>
</clipPath>
</defs>
</svg>
