<svg width="9" height="12" viewBox="0 0 9 12" fill="none" xmlns="http://www.w3.org/2000/svg">
<g clip-path="url(#clip0_146_1890)">
<path d="M4.71726 0.475464C7.47313 0.613107 9.2483 3.31592 8.2552 5.75596C7.62209 7.33261 6.05795 9.96034 5.16416 11.2116C4.8414 11.6496 4.15864 11.6496 3.83588 11.2116C2.92968 9.97286 1.36554 7.32009 0.732436 5.75596C-0.235839 3.31592 1.52692 0.600594 4.28278 0.475464C4.35726 0.475464 4.43175 0.475464 4.50623 0.475464C4.58071 0.475464 4.6552 0.475464 4.72968 0.475464H4.71726Z" stroke="#2A2A2A" stroke-width="0.75" stroke-linecap="round" stroke-linejoin="round"/>
<path d="M4.50619 5.93122C5.27406 5.93122 5.89653 5.30376 5.89653 4.52976C5.89653 3.75575 5.27406 3.1283 4.50619 3.1283C3.73832 3.1283 3.11584 3.75575 3.11584 4.52976C3.11584 5.30376 3.73832 5.93122 4.50619 5.93122Z" stroke="#2A2A2A" stroke-width="0.75" stroke-linecap="round" stroke-linejoin="round"/>
</g>
<defs>
<clipPath id="clip0_146_1890">
<rect width="9" height="12" fill="white"/>
</clipPath>
</defs>
</svg>
