<svg width="36" height="48" viewBox="0 0 36 48" fill="none" xmlns="http://www.w3.org/2000/svg">
<g clip-path="url(#clip0_146_1234)">
<path d="M19.3924 30.5654C18.4508 30.5654 17.5092 30.5654 16.5676 30.5654C16.5676 29.5446 16.6077 28.5237 16.5777 27.5029C16.5576 26.7723 16.0668 26.2918 15.4458 26.3219C14.7847 26.3519 14.4441 26.7322 14.4341 27.5029C14.4341 28.5237 14.4441 29.5446 14.4541 30.5654C13.8131 30.5754 13.172 30.6155 12.5309 30.5854C11.2688 30.5354 10.5877 29.7848 10.5576 28.5137C10.5376 27.723 10.6077 26.9324 10.4474 26.1417C10.1069 24.4904 8.82474 23.2893 7.14193 23.0491C6.54093 22.9591 5.90988 22.9891 5.35896 22.6388C4.55763 22.1284 4.12691 21.3878 4.13693 20.457C4.16698 17.8148 4.00671 15.1826 4.23709 12.5404C4.76798 6.69552 8.86481 1.88151 14.5643 0.430301C22.5176 -1.58138 30.4608 3.65299 31.6428 11.7898C32.0735 14.7322 31.8331 17.7247 31.783 20.6972C31.763 22.0083 30.8414 22.7989 29.4992 22.9591C26.6545 23.2994 25.3924 24.7305 25.3924 27.6029C25.3924 30.2151 25.0017 30.6054 22.3473 30.6054C22.0668 30.6054 21.7863 30.5854 21.5059 30.5754C21.5059 29.5746 21.5359 28.5838 21.5259 27.5829C21.5259 26.7522 21.1954 26.3519 20.5142 26.3219C19.8631 26.2918 19.3924 26.7923 19.3723 27.5829C19.3623 28.5838 19.3723 29.5746 19.3924 30.5754V30.5654ZM12.3606 10.899C10.5877 10.899 9.22541 12.2401 9.21539 13.9816C9.21539 15.703 10.6077 17.0842 12.3506 17.0842C14.1136 17.0842 15.5259 15.663 15.4959 13.9115C15.4658 12.2301 14.0835 10.899 12.3606 10.899ZM23.6194 10.899C21.8464 10.899 20.4742 12.2301 20.4641 13.9616C20.4541 15.693 21.8264 17.0742 23.5693 17.0842C25.2822 17.0842 26.7246 15.693 26.7446 14.0016C26.7646 12.2702 25.3823 10.899 23.6194 10.899ZM17.98 23.0892C18.4909 23.0892 19.0017 23.0892 19.5126 23.0892C19.773 23.0892 19.9633 23.0291 19.9533 22.7089C19.9333 22.1784 19.9833 21.628 19.8932 21.1075C19.6929 19.9866 18.9116 19.4562 17.7296 19.5462C16.808 19.6163 16.0868 20.3869 16.0267 21.3978C16.0067 21.678 16.0568 21.9582 16.0167 22.2385C15.9266 22.889 16.1269 23.1993 16.8381 23.0992C17.2087 23.0491 17.5994 23.0992 17.99 23.0892H17.98Z" fill="#DEDEDE"/>
<path d="M18.2204 40.5437C18.01 40.4536 17.8197 40.5237 17.6194 40.6037C14.2037 41.9148 10.788 43.2359 7.37231 44.527C7.00169 44.6671 6.85144 44.8172 6.84143 45.2476C6.80136 46.909 5.38901 48.14 3.7663 47.9899C2.19368 47.8398 1.04176 46.3485 1.3022 44.7272C1.35228 44.3969 1.25211 44.2468 1.03174 44.0666C0.170309 43.366 -0.150225 42.4453 0.0701421 41.3644C0.290509 40.2835 1.01171 39.5429 2.0234 39.2726C3.03508 39.0024 4.01672 39.1625 4.74794 39.9832C5.07849 40.3535 5.35896 40.3735 5.78967 40.2034C7.58266 39.5028 9.38567 38.8222 11.1787 38.1317C11.2788 38.0916 11.369 38.0116 11.4591 37.9415C13.3222 37.2409 15.1853 36.5403 17.0384 35.8298C17.2888 35.7297 17.6094 35.7197 17.7596 35.4294C17.97 35.5195 18.1603 35.4494 18.3606 35.3694C21.8064 34.0483 25.2621 32.7172 28.7179 31.4161C29.0885 31.276 29.1186 31.0558 29.1286 30.7255C29.1787 29.2743 30.2504 28.1333 31.6428 27.9832C32.7947 27.8631 33.9065 28.4036 34.4474 29.3944C34.6277 29.7147 34.7079 30.095 34.6478 30.4553C34.5176 31.316 34.9483 31.8765 35.4892 32.547C36.3606 33.6179 36.0501 35.2893 35.0084 36.15C33.8865 37.0808 32.2438 37.0608 31.2721 36.0299C30.8715 35.6096 30.571 35.6096 30.0902 35.8097C28.3974 36.5003 26.6845 37.1308 24.9716 37.7914C24.8114 37.8514 24.6411 37.8815 24.5309 38.0316C22.8581 38.6621 21.1853 39.2726 19.5226 39.9232C19.0818 40.0933 18.571 40.1433 18.2304 40.5437H18.2204Z" fill="#DEDEDE"/>
<path d="M18.2204 40.5437C18.561 40.1434 19.0718 40.0933 19.5126 39.9232C21.1753 39.2726 22.8581 38.6621 24.5209 38.0316C26.4641 38.7722 28.4074 39.5028 30.3406 40.2535C30.6712 40.3836 30.8615 40.3536 31.1119 40.0733C32.2438 38.8323 34.0969 38.8123 35.2187 40.0033C36.3406 41.1943 36.2004 43.0458 34.8982 44.1067C34.6879 44.2768 34.5877 44.4069 34.6478 44.7172C34.9383 46.3485 33.7763 47.8498 32.1536 47.9899C30.561 48.13 29.1586 46.899 29.1286 45.2576C29.1286 44.8273 28.9884 44.6772 28.6177 44.527C25.1419 43.2159 21.6762 41.8748 18.2104 40.5437H18.2204Z" fill="#DEDEDE"/>
<path d="M17.7596 35.4295C17.6094 35.7197 17.2888 35.7297 17.0384 35.8298C15.1853 36.5404 13.3222 37.241 11.4591 37.9416C9.5359 37.211 7.61269 36.4803 5.6995 35.7397C5.3389 35.5996 5.11853 35.5996 4.82805 35.9199C3.72621 37.1209 1.85309 37.1209 0.761271 35.9499C-0.340565 34.7689 -0.220365 32.9374 1.04174 31.8965C1.26211 31.7164 1.38231 31.5863 1.32221 31.246C1.03172 29.6446 2.17362 28.1634 3.76628 27.9933C5.38898 27.8231 6.81135 29.0642 6.83139 30.7255C6.83139 31.1559 6.99165 31.296 7.35226 31.4361C10.818 32.7572 14.2838 34.0884 17.7496 35.4195L17.7596 35.4295Z" fill="#DEDEDE"/>
<path d="M12.3606 10.899C14.0835 10.899 15.4758 12.2302 15.4959 13.9116C15.5259 15.673 14.1135 17.0942 12.3506 17.0842C10.5977 17.0842 9.20537 15.7031 9.21539 13.9816C9.21539 12.2402 10.5877 10.899 12.3606 10.899Z" fill="#979797"/>
<path d="M23.6194 10.899C25.3823 10.899 26.7546 12.2702 26.7446 14.0016C26.7246 15.693 25.2922 17.0842 23.5693 17.0842C21.8164 17.0842 20.4441 15.693 20.4641 13.9616C20.4742 12.2302 21.8464 10.899 23.6194 10.899Z" fill="#979797"/>
<path d="M17.98 23.0892C17.5994 23.0892 17.2087 23.0491 16.8281 23.0892C16.1169 23.1892 15.9166 22.869 16.0067 22.2284C16.0468 21.9482 16.0067 21.668 16.0167 21.3877C16.0768 20.3869 16.798 19.6063 17.7196 19.5362C18.9115 19.4561 19.6929 19.9866 19.8832 21.0975C19.9733 21.6179 19.9333 22.1584 19.9433 22.6988C19.9533 23.0091 19.763 23.0792 19.5025 23.0792C18.9917 23.0792 18.4808 23.0792 17.97 23.0792L17.98 23.0892Z" fill="#979797"/>
</g>
<defs>
<clipPath id="clip0_146_1234">
<rect width="36" height="48" fill="white"/>
</clipPath>
</defs>
</svg>
