<svg width="45" height="45" viewBox="0 0 45 45" fill="none" xmlns="http://www.w3.org/2000/svg">
<g clip-path="url(#clip0_146_1253)">
<path d="M22.5 45C34.9264 45 45 34.9264 45 22.5C45 10.0736 34.9264 0 22.5 0C10.0736 0 0 10.0736 0 22.5C0 34.9264 10.0736 45 22.5 45Z" fill="#E2E2E2"/>
<path d="M11.5062 17.2576L14.6246 20.3759C15.2559 21.0072 16.2795 21.0072 16.9108 20.3759L16.9181 20.3687C17.5494 19.7373 17.5494 18.7137 16.9181 18.0824L13.7998 14.9641C13.1684 14.3327 12.1448 14.3327 11.5135 14.9641L11.5062 14.9713C10.8749 15.6026 10.8749 16.6263 11.5062 17.2576Z" fill="#979797"/>
<path d="M13.7996 23.4873L16.918 20.369C17.5493 19.7376 17.5493 18.714 16.918 18.0827L16.9107 18.0755C16.2794 17.4441 15.2558 17.4441 14.6244 18.0755L11.5061 21.1938C10.8748 21.8251 10.8748 22.8487 11.5061 23.48L11.5134 23.4873C12.1447 24.1186 13.1683 24.1186 13.7996 23.4873Z" fill="#979797"/>
<path d="M31.2061 14.9695L28.0878 18.0878C27.4564 18.7192 27.4564 19.7428 28.0878 20.3741L28.095 20.3813C28.7263 21.0127 29.7499 21.0127 30.3813 20.3813L33.4996 17.263C34.1309 16.6317 34.1309 15.6081 33.4996 14.9767L33.4923 14.9695C32.861 14.3382 31.8374 14.3382 31.2061 14.9695Z" fill="#979797"/>
<path d="M33.4994 21.1987L30.3811 18.0804C29.7498 17.4491 28.7262 17.4491 28.0948 18.0804L28.0876 18.0876C27.4563 18.719 27.4563 19.7426 28.0876 20.3739L31.2059 23.4922C31.8373 24.1236 32.8609 24.1236 33.4922 23.4922L33.4994 23.485C34.1308 22.8536 34.1308 21.83 33.4994 21.1987Z" fill="#979797"/>
<path d="M15.0409 33.8574L11.9304 31.1766C11.2961 30.6344 11.2961 29.7442 11.9304 29.2019C12.5648 28.6596 13.588 28.6596 14.2224 29.2019L17.3329 31.8826C17.9673 32.4249 17.9673 33.3151 17.3329 33.8574C16.6985 34.3997 15.6753 34.3997 15.0409 33.8574Z" fill="#979797"/>
<path d="M11.1119 33.8574L14.2224 31.1766C14.8568 30.6344 14.8568 29.7442 14.2224 29.2019C13.588 28.6596 12.5648 28.6596 11.9304 29.2019L8.81993 31.8826C8.18555 32.4249 8.18555 33.3151 8.81993 33.8574C9.45431 34.3997 10.4775 34.3997 11.1119 33.8574Z" fill="#979797"/>
<path d="M21.3234 33.8574L18.2128 31.1766C17.5785 30.6344 17.5785 29.7442 18.2128 29.2019C18.8472 28.6596 19.8704 28.6596 20.5048 29.2019L23.6153 31.8826C24.2497 32.4249 24.2497 33.3151 23.6153 33.8574C22.9809 34.3997 21.9577 34.3997 21.3234 33.8574Z" fill="#979797"/>
<path d="M17.3943 33.8574L20.5048 31.1766C21.1392 30.6344 21.1392 29.7442 20.5048 29.2019C19.8704 28.6596 18.8472 28.6596 18.2128 29.2019L15.1023 31.8826C14.468 32.4249 14.468 33.3151 15.1023 33.8574C15.7367 34.3997 16.7599 34.3997 17.3943 33.8574Z" fill="#979797"/>
<path d="M27.6057 33.8574L24.4952 31.1766C23.8608 30.6344 23.8608 29.7442 24.4952 29.2019C25.1296 28.6596 26.1528 28.6596 26.7872 29.2019L29.8977 31.8826C30.5321 32.4249 30.5321 33.3151 29.8977 33.8574C29.2633 34.3997 28.2401 34.3997 27.6057 33.8574Z" fill="#979797"/>
<path d="M23.6767 33.8574L26.7872 31.1766C27.4216 30.6344 27.4216 29.7442 26.7872 29.2019C26.1528 28.6596 25.1296 28.6596 24.4952 29.2019L21.3847 31.8826C20.7503 32.4249 20.7503 33.3151 21.3847 33.8574C22.0191 34.3997 23.0423 34.3997 23.6767 33.8574Z" fill="#979797"/>
<path d="M33.8984 33.8574L30.7879 31.1766C30.1535 30.6344 30.1535 29.7442 30.7879 29.2019C31.4222 28.6596 32.4454 28.6596 33.0798 29.2019L36.1903 31.8826C36.8247 32.4249 36.8247 33.3151 36.1903 33.8574C35.5559 34.3997 34.5327 34.3997 33.8984 33.8574Z" fill="#979797"/>
<path d="M29.9693 33.8574L33.0798 31.1766C33.7142 30.6344 33.7142 29.7442 33.0798 29.2019C32.4454 28.6596 31.4222 28.6596 30.7879 29.2019L27.6774 31.8826C27.043 32.4249 27.043 33.3151 27.6774 33.8574C28.3117 34.3997 29.3349 34.3997 29.9693 33.8574Z" fill="#979797"/>
</g>
<defs>
<clipPath id="clip0_146_1253">
<rect width="45" height="45" fill="white"/>
</clipPath>
</defs>
</svg>
