<svg width="45" height="45" viewBox="0 0 45 45" fill="none" xmlns="http://www.w3.org/2000/svg">
<g clip-path="url(#clip0_146_1280)">
<path d="M22.5 45C34.9264 45 45 34.9264 45 22.5C45 10.0736 34.9264 0 22.5 0C10.0736 0 0 10.0736 0 22.5C0 34.9264 10.0736 45 22.5 45Z" fill="#E2E2E2"/>
<path d="M14.7442 22.8581C16.4508 22.8581 17.8342 21.4746 17.8342 19.768C17.8342 18.0614 16.4508 16.678 14.7442 16.678C13.0376 16.678 11.6542 18.0614 11.6542 19.768C11.6542 21.4746 13.0376 22.8581 14.7442 22.8581Z" fill="#979797"/>
<path d="M30.2558 22.8581C31.9624 22.8581 33.3458 21.4746 33.3458 19.768C33.3458 18.0614 31.9624 16.678 30.2558 16.678C28.5492 16.678 27.1658 18.0614 27.1658 19.768C27.1658 21.4746 28.5492 22.8581 30.2558 22.8581Z" fill="#979797"/>
<path d="M22.5 36.5996C17.558 36.5996 13.5471 32.5784 13.5471 27.6466C13.5471 26.9304 14.1201 26.3574 14.8363 26.3574H30.1637C30.8799 26.3574 31.4529 26.9304 31.4529 27.6466C31.4529 32.5887 27.4318 36.5996 22.5 36.5996ZM16.2585 28.9359C16.852 31.8315 19.4304 34.0211 22.5 34.0211C25.5696 34.0211 28.148 31.8315 28.7415 28.9359H16.2585Z" fill="#979797"/>
</g>
<defs>
<clipPath id="clip0_146_1280">
<rect width="45" height="45" fill="white"/>
</clipPath>
</defs>
</svg>
