<svg width="45" height="45" viewBox="0 0 45 45" fill="none" xmlns="http://www.w3.org/2000/svg">
<g clip-path="url(#clip0_146_1275)">
<path d="M22.5 45C34.9264 45 45 34.9264 45 22.5C45 10.0736 34.9264 0 22.5 0C10.0736 0 0 10.0736 0 22.5C0 34.9264 10.0736 45 22.5 45Z" fill="#E2E2E2"/>
<path d="M14.7442 22.8581C16.4508 22.8581 17.8342 21.4746 17.8342 19.768C17.8342 18.0614 16.4508 16.678 14.7442 16.678C13.0376 16.678 11.6542 18.0614 11.6542 19.768C11.6542 21.4746 13.0376 22.8581 14.7442 22.8581Z" fill="#979797"/>
<path d="M30.2558 22.8581C31.9624 22.8581 33.3458 21.4746 33.3458 19.768C33.3458 18.0614 31.9624 16.678 30.2558 16.678C28.5492 16.678 27.1658 18.0614 27.1658 19.768C27.1658 21.4746 28.5492 22.8581 30.2558 22.8581Z" fill="#979797"/>
<path d="M22.5 25.8561C27.442 25.8561 31.4529 29.8772 31.4529 34.809C31.4529 35.5252 30.88 36.0982 30.1637 36.0982H14.8363C14.1201 36.0982 13.5471 35.5252 13.5471 34.809C13.5471 29.867 17.5682 25.8561 22.5 25.8561ZM28.7415 33.5198C28.148 30.6242 25.5696 28.4345 22.5 28.4345C19.4304 28.4345 16.852 30.6242 16.2585 33.5198H28.7415Z" fill="#979797"/>
</g>
<defs>
<clipPath id="clip0_146_1275">
<rect width="45" height="45" fill="white"/>
</clipPath>
</defs>
</svg>
