<svg width="45" height="45" viewBox="0 0 45 45" fill="none" xmlns="http://www.w3.org/2000/svg">
<g clip-path="url(#clip0_146_1245)">
<path d="M22.5 45C34.9264 45 45 34.9264 45 22.5C45 10.0736 34.9264 0 22.5 0C10.0736 0 0 10.0736 0 22.5C0 34.9264 10.0736 45 22.5 45Z" fill="#E2E2E2"/>
<path d="M22.5 26.777C28.455 26.777 33.2947 30.4605 33.2947 34.9932C33.2947 35.7094 32.7217 36.2824 32.0055 36.2824C31.2892 36.2824 30.7162 35.7094 30.7162 34.9932C30.7162 31.8827 27.0327 29.3554 22.5 29.3554C17.9673 29.3554 14.2838 31.8827 14.2838 34.9932C14.2838 35.7094 13.7108 36.2824 12.9945 36.2824C12.2783 36.2824 11.7053 35.7094 11.7053 34.9932C11.7053 30.4605 16.545 26.777 22.5 26.777Z" fill="#979797"/>
<path d="M15.6395 16.2537L10.5677 21.3255C9.93639 21.9568 9.93639 22.9804 10.5677 23.6118L10.575 23.619C11.2063 24.2503 12.2299 24.2503 12.8612 23.619L17.933 18.5472C18.5644 17.9159 18.5644 16.8923 17.933 16.2609L17.9258 16.2537C17.2945 15.6224 16.2708 15.6224 15.6395 16.2537Z" fill="#979797"/>
<path d="M10.575 18.5453L15.6467 23.6171C16.2781 24.2485 17.3017 24.2485 17.933 23.6171L17.9403 23.6099C18.5716 22.9785 18.5716 21.9549 17.9403 21.3236L12.8685 16.2518C12.2371 15.6205 11.2135 15.6205 10.5822 16.2518L10.575 16.2591C9.94363 16.8904 9.94363 17.914 10.575 18.5453Z" fill="#979797"/>
<path d="M32.306 16.2447L27.2343 21.3165C26.6029 21.9478 26.6029 22.9714 27.2343 23.6027L27.2415 23.61C27.8728 24.2413 28.8964 24.2413 29.5278 23.61L34.5996 18.5382C35.2309 17.9069 35.2309 16.8833 34.5996 16.2519L34.5923 16.2447C33.961 15.6133 32.9374 15.6133 32.306 16.2447Z" fill="#979797"/>
<path d="M27.2338 18.5364L32.3056 23.6082C32.9369 24.2395 33.9605 24.2395 34.5919 23.6082L34.5991 23.601C35.2304 22.9696 35.2304 21.946 34.5991 21.3147L29.5273 16.2429C28.896 15.6116 27.8724 15.6116 27.241 16.2429L27.2338 16.2501C26.6025 16.8815 26.6025 17.9051 27.2338 18.5364Z" fill="#979797"/>
</g>
<defs>
<clipPath id="clip0_146_1245">
<rect width="45" height="45" fill="white"/>
</clipPath>
</defs>
</svg>
