<svg width="43" height="45" viewBox="0 0 43 45" fill="none" xmlns="http://www.w3.org/2000/svg">
<g clip-path="url(#clip0_146_1220)">
<path d="M30.7134 19.9355C29.7468 21.9871 28.7679 24.0202 27.8261 26.0718C27.5349 26.7083 27.7393 27.3078 28.0925 27.8886C30.4346 31.7262 32.7643 35.5699 35.1001 39.4136C35.3046 39.7535 35.5215 40.081 35.7135 40.4271C36.5314 41.8793 36.1349 43.6281 34.7841 44.5118C33.452 45.3831 31.6924 45.0865 30.6948 43.7641C28.9599 41.4653 27.2498 39.1479 25.5336 36.8367C24.5546 35.5205 23.5818 34.2042 22.6029 32.8941C22.4728 32.7149 22.3302 32.5419 22.132 32.2885C21.7664 32.8756 21.4442 33.407 21.1034 33.9323C20.7565 34.4699 20.4405 35.0323 20.0253 35.5143C19.0836 36.6143 17.863 37.2013 16.4069 37.2137C14.2941 37.2322 12.1813 37.2322 10.0684 37.2137C8.33976 37.1951 6.94567 35.7677 6.95806 34.0621C6.97045 32.338 8.33976 30.9352 10.0746 30.9105C11.5431 30.8858 13.0177 30.8858 14.4862 30.9105C14.9199 30.9167 15.1181 30.7622 15.2792 30.3852C15.9794 28.7229 16.7167 27.0729 17.4292 25.4168C18.687 22.4815 19.9386 19.5461 21.1902 16.6108C21.2336 16.512 21.2645 16.4069 21.3141 16.2586C20.8308 16.2586 20.3847 16.2277 19.951 16.2771C19.8147 16.2895 19.6536 16.4811 19.573 16.6294C19.1951 17.34 18.8481 18.0754 18.4702 18.7922C17.6213 20.4113 15.8555 21.0045 14.3065 20.2074C12.7637 19.4102 12.2122 17.6057 13.0549 15.999C13.6993 14.7693 14.3622 13.5396 15.0438 12.3283C15.8617 10.8761 17.1256 10.1346 18.7924 10.1346C21.2645 10.1346 23.7367 10.1346 26.2027 10.1717C26.4692 10.1717 26.7852 10.32 26.9896 10.493C28.3465 11.6362 29.9017 12.2604 31.6676 12.4025C31.9154 12.421 32.2004 12.5694 32.3925 12.7424C33.8238 14.0525 35.2426 15.3749 36.6429 16.7221C37.1944 17.2535 37.7954 17.5131 38.5699 17.4883C39.301 17.4636 40.0507 17.4513 40.7632 17.5872C42.1759 17.8529 43.1301 19.2186 42.9938 20.6214C42.8513 22.0489 41.6926 23.1736 40.249 23.2107C38.9478 23.2477 37.6467 23.2292 36.3455 23.2292C35.5029 23.2292 34.7717 22.9202 34.1088 22.4135C33.0493 21.5978 31.9774 20.7944 30.9117 19.9911C30.8869 19.9725 30.8435 19.9664 30.7196 19.9355H30.7134Z" fill="#D7D7D7"/>
<path d="M32.0641 -1.27641e-05C34.9824 0.0185261 37.3245 2.35442 37.3121 5.2403C37.2997 8.11383 34.9142 10.4497 32.0145 10.4374C29.1334 10.425 26.7232 8.02731 26.748 5.19087C26.7727 2.32352 29.1768 -0.0185516 32.0641 -1.27641e-05Z" fill="#D7D7D7"/>
<path d="M7.62723 18.0074H1.04712C0.468811 18.0074 0 18.4736 0 19.0487C0 19.6238 0.468811 20.09 1.04712 20.09H7.62723C8.20554 20.09 8.67435 19.6238 8.67435 19.0487C8.67435 18.4736 8.20554 18.0074 7.62723 18.0074Z" fill="#D7D7D7"/>
<path d="M9.67189 13.7311H6.41281C5.8345 13.7311 5.36569 14.1973 5.36569 14.7724C5.36569 15.3475 5.8345 15.8137 6.41281 15.8137H9.67189C10.2502 15.8137 10.719 15.3475 10.719 14.7724C10.719 14.1973 10.2502 13.7311 9.67189 13.7311Z" fill="#D7D7D7"/>
</g>
<defs>
<clipPath id="clip0_146_1220">
<rect width="43" height="45" fill="white"/>
</clipPath>
</defs>
</svg>
