<svg width="48" height="45" viewBox="0 0 48 45" fill="none" xmlns="http://www.w3.org/2000/svg">
<g clip-path="url(#clip0_146_1212)">
<path d="M35.6816 19.9355C34.7126 21.9871 33.7311 24.0202 32.7869 26.0718C32.4949 26.7083 32.6999 27.3078 33.054 27.8886C35.4021 31.7262 37.7378 35.5699 40.0797 39.4136C40.2847 39.7535 40.5021 40.081 40.6947 40.4271C41.5147 41.8793 41.1171 43.6281 39.7629 44.5118C38.4273 45.3831 36.6631 45.0865 35.663 43.7641C33.9236 41.4653 32.2091 39.1479 30.4884 36.8367C29.5069 35.5205 28.5316 34.2042 27.5501 32.8941C27.4197 32.7149 27.2768 32.5419 27.078 32.2885C26.7115 32.8756 26.3885 33.407 26.0469 33.9323C25.699 34.4699 25.3822 35.0323 24.966 35.5143C24.0217 36.6143 22.798 37.2013 21.3382 37.2137C19.2199 37.2322 17.1016 37.2322 14.9833 37.2137C13.2502 37.1951 11.8525 35.7677 11.8649 34.0621C11.8773 32.338 13.2502 30.9352 14.9895 30.9105C16.4618 30.8858 17.9402 30.8858 19.4125 30.9105C19.8473 30.9167 20.0461 30.7622 20.2076 30.3852C20.9095 28.7229 21.6488 27.0729 22.3631 25.4168C23.6242 22.4815 24.879 19.5461 26.1338 16.6108C26.1773 16.512 26.2084 16.4069 26.2581 16.2586C25.7735 16.2586 25.3263 16.2277 24.8914 16.2771C24.7548 16.2895 24.5932 16.4811 24.5125 16.6294C24.1336 17.34 23.7857 18.0754 23.4068 18.7922C22.5557 20.4113 20.7853 21.0045 19.2323 20.2074C17.6855 19.4102 17.1327 17.6057 17.9775 15.999C18.6235 14.7693 19.2882 13.5396 19.9715 12.3283C20.7915 10.8761 22.0588 10.1346 23.7298 10.1346C26.2084 10.1346 28.6869 10.1346 31.1593 10.1717C31.4264 10.1717 31.7432 10.32 31.9482 10.493C33.3087 11.6362 34.8679 12.2604 36.6383 12.4025C36.8868 12.421 37.1725 12.5694 37.3651 12.7424C38.8001 14.0525 40.2226 15.3749 41.6265 16.7221C42.1794 17.2535 42.7819 17.5131 43.5584 17.4883C44.2915 17.4636 45.0431 17.4513 45.7575 17.5872C47.1738 17.8529 48.1305 19.2186 47.9938 20.6214C47.8509 22.0489 46.6893 23.1736 45.2419 23.2107C43.9374 23.2477 42.6328 23.2292 41.3283 23.2292C40.4835 23.2292 39.7505 22.9202 39.0858 22.4135C38.0236 21.5978 36.9489 20.7944 35.8804 19.9911C35.8556 19.9725 35.8121 19.9664 35.6879 19.9355H35.6816Z" fill="#D7D7D7"/>
<path d="M37.042 -1.27641e-05C39.9679 0.0185261 42.316 2.35442 42.3036 5.2403C42.2912 8.11383 39.8996 10.4497 36.9924 10.4374C34.1038 10.425 31.6873 8.02731 31.7122 5.19087C31.737 2.32352 34.1411 -0.0185516 37.042 -1.27641e-05Z" fill="#D7D7D7"/>
<path d="M11.0822 22.2837H1.04983C0.470023 22.2837 0 22.7499 0 23.325C0 23.9 0.470023 24.3662 1.04983 24.3662H11.0822C11.662 24.3662 12.132 23.9 12.132 23.325C12.132 22.7499 11.662 22.2837 11.0822 22.2837Z" fill="#D7D7D7"/>
<path d="M12.542 18.0074H5.94484C5.36504 18.0074 4.89502 18.4736 4.89502 19.0487C4.89502 19.6238 5.36504 20.09 5.94484 20.09H12.542C13.1218 20.09 13.5918 19.6238 13.5918 19.0487C13.5918 18.4736 13.1218 18.0074 12.542 18.0074Z" fill="#D7D7D7"/>
<path d="M14.5857 13.7311H11.3182C10.7384 13.7311 10.2684 14.1973 10.2684 14.7724C10.2684 15.3475 10.7384 15.8137 11.3182 15.8137H14.5857C15.1655 15.8137 15.6356 15.3475 15.6356 14.7724C15.6356 14.1973 15.1655 13.7311 14.5857 13.7311Z" fill="#D7D7D7"/>
<path d="M16.2878 9.94299H14.7721C14.1923 9.94299 13.7223 10.4092 13.7223 10.9843C13.7223 11.5593 14.1923 12.0255 14.7721 12.0255H16.2878C16.8676 12.0255 17.3376 11.5593 17.3376 10.9843C17.3376 10.4092 16.8676 9.94299 16.2878 9.94299Z" fill="#D7D7D7"/>
</g>
<defs>
<clipPath id="clip0_146_1212">
<rect width="48" height="45" fill="white"/>
</clipPath>
</defs>
</svg>
