<svg width="36" height="45" viewBox="0 0 36 45" fill="none" xmlns="http://www.w3.org/2000/svg">
<g clip-path="url(#clip0_146_1226)">
<path d="M23.7298 19.9355C22.7645 21.9871 21.7869 24.0202 20.8463 26.0718C20.5555 26.7083 20.7597 27.3078 21.1124 27.8886C23.4513 31.7262 25.7779 35.5699 28.1107 39.4136C28.3149 39.7535 28.5314 40.081 28.7233 40.4271C29.54 41.8793 29.144 43.6281 27.7951 44.5118C26.4648 45.3831 24.7075 45.0865 23.7112 43.7641C21.9787 41.4653 20.2709 39.1479 18.5569 36.8367C17.5792 35.5205 16.6078 34.2042 15.6301 32.8941C15.5002 32.7149 15.3578 32.5419 15.1598 32.2885C14.7948 32.8756 14.473 33.407 14.1327 33.9323C13.7862 34.4699 13.4706 35.0323 13.056 35.5143C12.1155 36.6143 10.8965 37.2013 9.44241 37.2137C7.33241 37.2322 5.2224 37.2322 3.1124 37.2137C1.37985 37.2013 -0.0123851 35.7677 -9.68585e-06 34.0621C0.0123657 32.338 1.37985 30.9352 3.1124 30.9105C4.57888 30.8858 6.05155 30.8858 7.51804 30.9105C7.95118 30.9167 8.14918 30.7622 8.31006 30.3852C9.00927 28.7229 9.74561 27.0729 10.4572 25.4168C11.7133 22.4815 12.9632 19.5461 14.2131 16.6108C14.2564 16.512 14.2874 16.4069 14.3369 16.2586C13.8542 16.2586 13.4087 16.2277 12.9756 16.2771C12.8395 16.2895 12.6786 16.4811 12.5981 16.6294C12.2207 17.34 11.8742 18.0754 11.4967 18.7922C10.649 20.4113 8.88552 21.0045 7.33859 20.2074C5.79786 19.4102 5.24715 17.6057 6.08868 15.999C6.7322 14.7693 7.39428 13.5396 8.07493 12.3283C8.89171 10.8761 10.154 10.1346 11.8185 10.1346C14.2874 10.1346 16.7563 10.1346 19.219 10.1717C19.485 10.1717 19.8006 10.32 20.0048 10.493C21.3599 11.6362 22.913 12.2604 24.6765 12.4025C24.924 12.421 25.2087 12.5694 25.4005 12.7424C26.8298 14.0525 28.2468 15.3749 29.6452 16.7221C30.1959 17.2535 30.7961 17.5131 31.5696 17.4883C32.2998 17.4636 33.0485 17.4513 33.76 17.5872C35.1708 17.8529 36.1237 19.2186 35.9876 20.6214C35.8453 22.0489 34.6882 23.1736 33.2465 23.2107C31.9471 23.2477 30.6476 23.2292 29.3482 23.2292C28.5067 23.2292 27.7765 22.9202 27.1145 22.4135C26.0564 21.5978 24.9859 20.7944 23.9216 19.9911C23.8969 19.9725 23.8535 19.9664 23.7298 19.9355Z" fill="#D7D7D7"/>
<path d="M25.0787 -1.27641e-05C27.9931 0.0185261 30.3321 2.35442 30.3197 5.2403C30.3073 8.11383 27.9251 10.4497 25.0292 10.4374C22.152 10.425 19.7449 8.02731 19.7697 5.19087C19.7944 2.32352 22.1891 -0.0185516 25.0787 -1.27641e-05Z" fill="#D7D7D7"/>
</g>
<defs>
<clipPath id="clip0_146_1226">
<rect width="36" height="45" fill="white"/>
</clipPath>
</defs>
</svg>
