<svg width="30" height="45" viewBox="0 0 30 45" fill="none" xmlns="http://www.w3.org/2000/svg">
<g clip-path="url(#clip0_146_1229)">
<path d="M21.659 21.0013V21.5207C21.659 28.3042 21.659 35.0814 21.659 41.8649C21.659 42.2278 21.6464 42.6033 21.5586 42.9537C21.2197 44.2866 19.9393 45.144 18.6025 44.9812C17.2092 44.806 16.205 43.6859 16.1799 42.2403C16.1548 40.776 16.1799 39.3117 16.1736 37.8473C16.1736 35.7948 16.1736 33.7485 16.1736 31.6959C16.1736 31.5269 16.1736 31.3517 16.1736 31.1577H13.8389V31.6959C13.8389 35.1502 13.8389 38.6108 13.8389 42.0651C13.8389 43.6045 12.9602 44.6934 11.5418 44.9562C10.1046 45.2253 8.62343 44.1865 8.40376 42.741C8.35983 42.4531 8.34728 42.159 8.34728 41.8649C8.34728 35.0814 8.34728 28.3042 8.34728 21.5207C8.34728 21.3455 8.34728 21.1765 8.34728 20.8636C8.15899 21.0889 8.0523 21.2203 7.95188 21.3455C7.04184 22.5157 6.1569 23.7047 5.21548 24.8436C4.43723 25.7885 3.39539 26.1202 2.2092 25.8073C1.04811 25.5006 0.32008 24.7122 0.0753097 23.5294C-0.0941464 22.7159 0.0753097 21.9525 0.571126 21.2829C2.38493 18.8298 4.17991 16.3705 6.03138 13.9487C7.60669 11.8836 9.72803 10.8448 12.3326 10.8073C14.1088 10.7822 15.8849 10.7885 17.6611 10.8073C20.2971 10.8323 22.4435 11.8961 24.0314 13.9925C25.8577 16.3955 27.6464 18.8298 29.4351 21.2578C30.3828 22.5407 30.1318 24.2929 28.8954 25.2691C27.6276 26.2641 25.8577 26.1139 24.8284 24.8686C23.8933 23.7359 23.0209 22.5595 22.1234 21.4018C22.0105 21.2578 21.8912 21.1139 21.772 20.97C21.7406 20.9825 21.7029 20.9888 21.6715 21.0013H21.659Z" fill="#D7D7D7"/>
<path d="M15.0188 -7.04841e-06C17.6862 0.0125086 19.8577 2.18397 19.8452 4.8498C19.8389 7.50938 17.6485 9.67459 14.9812 9.66207C12.3138 9.64955 10.1423 7.47183 10.1548 4.81226C10.1674 2.15268 12.3515 -0.0125227 15.0188 -7.04841e-06Z" fill="#D7D7D7"/>
</g>
<defs>
<clipPath id="clip0_146_1229">
<rect width="30" height="45" fill="white"/>
</clipPath>
</defs>
</svg>
